<?xml version="1.0" encoding="utf-8"?>
<!-- Generator: Adobe Illustrator 16.0.0, SVG Export Plug-In . SVG Version: 6.00 Build 0)  -->
<!DOCTYPE svg PUBLIC "-//W3C//DTD SVG 1.1//EN" "http://www.w3.org/Graphics/SVG/1.1/DTD/svg11.dtd">
<svg version="1.1" id="Layer_1" xmlns="http://www.w3.org/2000/svg" xmlns:xlink="http://www.w3.org/1999/xlink" x="0px" y="0px"
	 width="588.001px" height="94.417px" viewBox="0 0 588.001 94.417" enable-background="new 0 0 588.001 94.417"
	 xml:space="preserve">
<path fill-rule="evenodd" clip-rule="evenodd" d="M0,0.24c0.478,0.023,0.955,0.067,1.433,0.067
	c10.437,0.004,20.874-0.049,31.31,0.024c5.588,0.039,11.073,0.868,16.265,3.065c7.408,3.135,12.569,8.281,14.175,16.405
	c2.246,11.36-3.401,21.246-13.458,24.638c-0.396,0.134-0.769,0.335-1.144,0.598c3.42,0.305,6.644,1.169,9.479,3.081
	c7.311,4.932,10.989,11.795,10.412,20.656c-0.746,11.452-7.399,18.193-17.861,21.696c-4.66,1.561-9.491,2.21-14.388,2.228
	c-11.756,0.044-23.513,0.015-35.269,0.012c-0.318,0-0.636-0.046-0.953-0.07C0,61.84,0,31.04,0,0.24z M18.933,77.063
	c1.484,0,2.836,0.016,4.188-0.003c5.229-0.074,10.472,0.056,15.683-0.297c5.789-0.393,9.176-3.543,10.074-8.699
	c1.039-5.966-1.729-10.496-7.51-12.061c-1.68-0.454-3.456-0.727-5.194-0.76c-5.471-0.105-10.945-0.058-16.418-0.062
	c-0.266,0-0.531,0.065-0.822,0.104C18.933,62.533,18.933,69.714,18.933,77.063z M18.945,39.444c0.397,0.03,0.747,0.078,1.096,0.078
	c3.599,0.006,7.2,0.069,10.796-0.025c1.706-0.044,3.436-0.252,5.099-0.632c4.501-1.029,7.805-3.499,8.816-8.236
	c0.345-1.618,0.445-3.346,0.314-4.996c-0.335-4.235-2.532-7.21-6.645-8.469c-1.89-0.579-3.896-0.979-5.865-1.057
	c-4.272-0.169-8.555-0.082-12.833-0.09c-0.261,0-0.522,0.083-0.778,0.126C18.945,23.935,18.945,31.644,18.945,39.444z"/>
<path fill-rule="evenodd" clip-rule="evenodd" d="M588.001,70.32c-0.356,1.506-0.613,3.045-1.087,4.514
	c-3.16,9.803-10.064,15.604-19.92,17.726c-12.738,2.741-24.512,0.318-35.012-7.605c-0.987-0.745-1.971-1.496-3.062-2.325
	c3.392-4.388,6.75-8.733,10.177-13.165c0.84,0.609,1.604,1.169,2.372,1.722c3.827,2.746,7.813,5.16,12.617,5.74
	c2.979,0.358,5.962,0.584,8.938-0.113c6.468-1.516,7.771-7.315,6.383-11.656c-0.983-3.076-2.968-5.457-5.867-6.979
	c-5.442-2.857-10.916-5.657-16.343-8.545c-4.562-2.429-8.622-5.48-11.664-9.752c-5.869-8.244-6.557-22.676,2.136-31.576
	c4.315-4.418,9.686-6.792,15.712-7.803c1.059-0.178,2.12-0.334,3.181-0.5c2.48,0,4.96,0,7.44,0c0.424,0.082,0.844,0.204,1.271,0.24
	c7.638,0.63,14.069,4.116,20.248,8.502c-3.117,4.728-6.207,9.414-9.35,14.18c-0.416-0.372-0.752-0.648-1.061-0.951
	c-4.999-4.91-11.084-6.566-17.905-5.907c-4.265,0.413-7.312,2.882-7.805,6.409c-0.635,4.542,0.761,8.289,4.742,10.842
	c0.871,0.559,1.797,1.038,2.721,1.509c5.367,2.739,10.799,5.358,16.098,8.223c6.581,3.558,11.575,8.616,13.911,15.918
	c0.483,1.511,0.758,3.088,1.129,4.634C588.001,65.84,588.001,68.08,588.001,70.32z"/>
<path fill-rule="evenodd" clip-rule="evenodd" d="M360.979,0.31c0.527,0,0.958,0,1.389,0c10.438,0,20.875-0.086,31.311,0.029
	c7.36,0.082,14.476,1.391,20.815,5.459c11.318,7.264,13.575,23.254,4.678,33.143c-2.148,2.388-4.781,4.097-7.793,5.22
	c-0.656,0.245-1.308,0.502-1.945,0.858c3.093,0.299,6.001,1.058,8.687,2.577c8.495,4.803,12.864,14.696,10.885,24.485
	c-1.8,8.898-7.349,14.464-15.553,17.695c-5.272,2.076-10.795,2.894-16.423,2.92c-11.596,0.054-23.192,0.017-34.789,0.014
	c-0.392,0-0.782-0.037-1.261-0.061C360.979,61.892,360.979,31.203,360.979,0.31z M379.812,77.063c4.557,0,8.99,0.026,13.422-0.012
	c2.194-0.019,4.399-0.033,6.578-0.263c5.879-0.62,9.225-3.745,10.027-9.19c0.826-5.601-1.807-9.883-7.232-11.464
	c-1.781-0.52-3.679-0.844-5.531-0.885c-5.473-0.124-10.949-0.063-16.424-0.069c-0.264,0-0.527,0.055-0.84,0.09
	C379.812,62.527,379.812,69.706,379.812,77.063z M379.754,16.042c0,0.642,0,1.114,0,1.587c0,6.353,0,12.705,0,19.057
	c0,2.841,0.001,2.887,2.796,2.831c4.347-0.087,8.724,0.039,13.031-0.437c6.26-0.691,9.784-4.359,10.396-10.478
	c0.604-6.049-1.837-10.484-8.146-11.883c-1.664-0.369-3.387-0.611-5.089-0.647C388.475,15.98,384.204,16.042,379.754,16.042z"/>
<path fill-rule="evenodd" clip-rule="evenodd" d="M167.346,46.22c-0.153,13.937-4.329,25.215-13.37,34.475
	c-7.036,7.205-15.669,11.524-25.609,13.031c-11.052,1.675-21.62,0.058-31.343-5.625c-12.617-7.373-20.018-18.459-22.361-32.815
	c-1.987-12.171,0.117-23.669,6.892-34.075C88.96,9.836,99.54,3.125,112.906,0.983c12.338-1.978,23.907,0.287,34.289,7.365
	c11.211,7.644,17.588,18.407,19.591,31.778C167.14,42.49,167.229,44.894,167.346,46.22z M148.583,49.069
	c-0.001-7.764-1.46-13.365-4.27-18.229c-9.686-16.775-32.559-18.683-44.809-3.738c-10.794,13.169-8.41,34.382,5.036,44.818
	c10.225,7.936,23.219,7.704,33.025-0.742C144.852,64.902,148.352,56.794,148.583,49.069z"/>
<path fill-rule="evenodd" clip-rule="evenodd" d="M527.693,47.284c-0.516,18.226-7.877,32.667-24.208,41.498
	c-23.801,12.87-56.758,3.429-66.367-25.629c-6.036-18.253-2.612-35.025,10.733-49.213c6.686-7.107,15.173-11.261,24.787-12.867
	c12.617-2.107,24.465,0.049,35.096,7.34c11.269,7.728,17.604,18.591,19.555,32.062c0.184,1.264,0.311,2.539,0.392,3.813
	C527.743,45.284,527.693,46.286,527.693,47.284z M509.06,48.3c-0.072-6.444-1.227-11.565-3.7-16.394
	c-8.94-17.452-32.611-20.134-45.158-5.099c-11.153,13.365-8.777,34.715,5.044,45.319c9.391,7.205,21.487,7.478,30.954,0.474
	C504.669,66.334,508.693,57.697,509.06,48.3z"/>
<path fill-rule="evenodd" clip-rule="evenodd" d="M259.95,47.659c0.586-18.098,7.811-32.064,23.344-41.242
	c6.513-3.848,13.665-5.817,21.225-5.994c18.926-0.443,33.626,7.135,43.017,23.747c9.998,17.684,7.38,42.229-8.259,57.256
	c-7.263,6.979-15.919,11.134-25.902,12.434c-11.545,1.503-22.397-0.555-32.223-6.918c-11.63-7.531-18.308-18.354-20.495-31.973
	C260.253,52.455,260.159,49.89,259.95,47.659z M278.771,47.081c0.071,8.273,2.811,15.502,8.365,21.625
	c8.819,9.72,22.346,11.853,33.051,4.969c9.057-5.825,13.839-14.36,14.354-25.081c0.459-9.572-2.563-17.956-9.698-24.587
	c-10.613-9.864-27.889-9.2-37.745,1.351C281.371,31.489,278.928,38.839,278.771,47.081z"/>
<path fill-rule="evenodd" clip-rule="evenodd" d="M234.252,0.809c6.162,0,12.137,0,18.175,0c0,30.361,0,60.66,0,91.107
	c-2.945,0-5.851,0.037-8.753-0.044c-0.394-0.011-0.813-0.58-1.149-0.956c-7.038-7.864-14.064-15.739-21.094-23.611
	c-8.787-9.84-17.574-19.681-26.364-29.52c-0.389-0.436-0.796-0.855-1.413-1.516c0,18.703,0,37.106,0,55.616
	c-6.116,0-12.085,0-18.139,0c0-30.345,0-60.68,0-91.167c2.766,0,5.512-0.033,8.255,0.038c0.372,0.009,0.782,0.488,1.087,0.829
	c12.401,13.849,24.792,27.707,37.184,41.565c3.784,4.231,7.562,8.469,11.342,12.703c0.211,0.236,0.426,0.471,0.87,0.961
	C234.252,37.968,234.252,19.42,234.252,0.809z"/>
</svg>
