<?xml version="1.0" encoding="utf-8"?>
<!-- Generator: Adobe Illustrator 16.0.0, SVG Export Plug-In . SVG Version: 6.00 Build 0)  -->
<!DOCTYPE svg PUBLIC "-//W3C//DTD SVG 1.1//EN" "http://www.w3.org/Graphics/SVG/1.1/DTD/svg11.dtd">
<svg version="1.1" id="logo" xmlns="http://www.w3.org/2000/svg" xmlns:xlink="http://www.w3.org/1999/xlink" x="0px" y="0px"
	 width="228.794px" height="53.098px" viewBox="0 0 228.794 53.098" enable-background="new 0 0 228.794 53.098"
	 xml:space="preserve">
<g>
	<path d="M219.578,5.051c-6.607-5.212-19.153-4.946-19.153-4.946c-2.185,0.006-7.11-0.017-9.267-0.002l-6.753-0.005
		c-0.026-0.002-0.047-0.01-0.07-0.01l-5.563-0.008c-2.522,0-3.389,0.176-3.229,1.241c0.088,0.582,0.967,0.751,1.357,0.86
		c1.56,0.437,2.701,1.275,2.768,2.827c0.081,1.79,0.279,7.414,0.279,9.366v15.976c0,2.156-0.01,5.691-0.017,7.848l-0.036,9.93
		c-0.006,2.158,1.752,3.927,3.909,3.931l5.013,0.008c2.16,0.005,5.691,0.008,7.852,0.008c0,0,9.245,0.01,15.965-3.095
		c10.066-4.566,15.837-13.372,15.837-24.158C228.469,16.772,225.146,9.384,219.578,5.051z M197.817,47.492l-0.493,0.001
		c-3.001,0.002-6.101,0.009-7.708-1.592c-0.831-0.835-1.237-2.063-1.237-3.76V18.239c0-4.922-0.12-7.244,0.045-12.762
		c3.852-0.479,5.793-0.609,8.938-0.609c5.677,0,11.612,0.763,16.576,6.274c3.389,3.822,5.039,8.595,5.039,14.582
		C218.978,38.946,210.668,47.492,197.817,47.492z M175.572,50.092c-1.554-0.543-2.739-2.376-2.771-3.316
		c-0.029-0.942-0.983-42.624-0.983-42.624c-0.044-2.158,0.057-3.727-0.521-3.941c-0.697-0.263-3.645-0.202-4.423-0.202
		c-1.88,0-3.272-0.051-3.613,0.347c-0.361,0.42-1.044,1.917-1.811,3.936l-3.813,8.493c-0.986,1.921-2.669,5.192-3.658,7.108
		l-5.785,11.214c-0.991,1.919-2.643,1.938-3.679,0.042l-6.044-11.086c-1.033-1.894-2.725-4.998-3.757-6.894l-4.239-8.952
		c-0.856-1.982-1.269-3.521-1.688-3.89c-0.356-0.321-1.867-0.321-4.024-0.308h-5.072c-2.519,0-3.654,0.027-3.49,1.092
		c0.086,0.583,0.964,0.751,1.352,0.858c1.562,0.441,2.133,2.347,2.133,3.29c0,0.94-0.029,38.912-0.212,40.575
		c-0.029,0.279-0.082,0.565-0.141,0.862c-0.028,0.015-0.054,0.04-0.062,0.08c-0.298,1.619-1.204,2.88-2.767,3.316
		c-0.388,0.109-1.266,0.277-1.353,0.861c-0.162,1.063,1.006,1.1,3.524,1.1l1.702-0.007c0.138,0.014,0.283,0.024,0.44,0.024
		c0,0,0.015-0.011,0.038-0.024h1.992l4.171,0.007c2.519,0,3.689-0.036,3.526-1.1c-0.088-0.584-0.964-0.752-1.352-0.861
		c-1.561-0.437-2.198-1.423-2.771-3.316c-0.002-0.008-0.007-0.018-0.007-0.026c-0.275-1.224-0.403-2.877-0.403-2.877
		c-0.083-2.161-0.135-5.691-0.11-7.849l0.004-0.667c0.023-2.159,0.082-5.69,0.134-7.848l0.199-8.508
		c0.05-2.157,0.927-2.37,1.948-0.469l5.613,10.425c1.024,1.902,6.402,12.079,7.363,14.005c0.818,1.637,0.988,2.253,3.511,2.286
		c2.826,0.033,2.826-0.751,3.987-3.241c0.852-1.831,12.887-25.512,12.887-25.512c0.98-1.924,1.83-1.732,1.887,0.426
		c0,0,0.152,28.879-0.05,30.176c-0.032,0.197-0.06,0.335-0.075,0.434c-0.414,1.248-1.261,2.194-2.566,2.562
		c-0.391,0.109-1.263,0.277-1.355,0.861c-0.156,1.063,1.006,1.1,3.525,1.1l5.243-0.009l2.347,0.002l1.223,0.012
		c0.031,0,0.055-0.005,0.084-0.012l1.589,0.007c2.527,0,3.688-0.036,3.528-1.1C176.835,50.369,175.954,50.227,175.572,50.092z"/>
	<path fill="#0081C6" d="M62.458,5.316c0.348-0.924,1.139-2.7,2.242-3.27c0.571-0.296,1.684-0.282,1.87-1.062
		C66.759,0.207,66.07,0,63.328,0H55.1c-2.517,0-3.684,0.035-3.524,1.1c0.085,0.581,0.967,0.749,1.354,0.859
		c2.382,0.667,3.985,1.884,3.236,4.379c-0.746,2.493-11.14,33.092-11.14,33.092c-0.404,1.099-1.413,1.414-1.732-0.223l-5.472-25.731
		c-0.449-2.113-0.962-4.817-1.141-6.011c0,0-0.386-1.688-2.319-1.688c-1.519,0-2.121,1.081-2.269,1.391
		c-0.696,1.445-2.065,4.203-3.042,6.129l-13.71,26.322c-0.561,0.976-1.278,0.686-1.363-0.487l-1.702-26.685
		c-0.01-2.103-0.202-6.192-0.195-6.896c0.006-1.754,1.167-3.104,2.809-3.564c0.39-0.108,1.321-0.328,1.41-0.909
		c0.16-1.063-1.059-1.048-3.582-1.048h-0.365c-0.373-0.003-8.743,0-8.743,0C3.138,0.019,2.722,0.019,2.362,0.039
		c-1.7,0.033-2.479,0.209-2.348,1.089c0.089,0.581,0.967,0.751,1.354,0.859c1.141,0.319,1.923,1.083,2.385,2.102
		c0.221,0.59,0.348,1.098,0.348,1.098C4.116,5.25,4.13,5.32,4.143,5.387c0.011,0.055,0.025,0.107,0.034,0.165
		c0.012,0.072,0.029,0.141,0.047,0.207c0.447,2.123,0.893,5.2,1.022,7.168l2.208,32.607c0.141,2.153,0.073,5.279,0.719,6.634
		c0.65,1.354,3.681,1.276,4.88-0.54c0.34-0.512,17.441-32.655,17.441-32.655c0.996-1.915,2.163-1.75,2.593,0.366l5.388,26.501
		c0.426,2.115,0.879,4.465,1.404,5.825c0.738,1.919,4.397,1.58,5.369-0.288c0.858-1.636,1.758-3.868,2.491-5.898
		C47.74,45.478,61.821,7.004,62.458,5.316z M107.58,17.884c-6.684,0-12.781,6.094-16.794,10.702
		c-0.082-0.081,0.358-1.839,0.972-3.905L97.99,3.789c0.618-2.07-0.644-3.763-2.802-3.765l-5.265-0.01
		c-2.523,0-3.686,0.035-3.527,1.101c0.089,0.582,0.967,0.75,1.355,0.859c2.499,0.7,3.325,3.504,2.663,6.527
		c0.025-0.247-6.232,24.705-6.232,24.705c-0.516,2.095-2.382,5.041-3.936,6.542c0,0-7.553,9.205-15.171,9.205
		c-3.493,0-6.093-2.006-6.093-5.721c0-1.935,0.141-3.61,0.585-5.547c7.955-0.743,22.164-4.413,22.164-14.521
		c0-4.088-3.939-5.279-7.288-5.279c-10.778,0-21.408,13.155-21.408,25.05c0,4.979,2.301,10.033,9.144,10.033
		c12.854,0,19.837-12.55,20.23-12.966c0,0-0.62,3.153-0.62,5.016c0,5.425,3.943,7.95,8.85,7.95c3.584,0,7.342-1.281,10.883-3.402
		c2.735-1.671,5.302-3.815,7.483-6.337c4.167-4.709,6.978-10.5,6.978-15.908C115.984,21.676,113.531,17.884,107.58,17.884z
		 M72.733,20.264c1.936,0,3.05,1.265,3.05,3.194c0,8.104-8.994,11.669-15.837,12.118C61.14,30.671,67.012,20.264,72.733,20.264z
		 M106.602,37.907c-1.687,3.314-3.887,6.474-6.33,8.895c-2.609,2.559-5.526,4.23-8.445,4.23c-3.417,0-4.535-3.267-4.535-6.315
		c0-8.325,9.069-23.788,18.287-23.788c3.418,0,4.458,2.379,4.458,5.208C110.036,29.358,108.722,33.722,106.602,37.907z"/>
	<path d="M223.052,3.206c0-1.491,1.126-2.615,2.564-2.615c1.423,0,2.545,1.124,2.545,2.615c0,1.514-1.122,2.63-2.545,2.63
		C224.178,5.836,223.052,4.72,223.052,3.206z M225.616,6.358c1.714,0,3.178-1.331,3.178-3.153c0-1.807-1.464-3.139-3.178-3.139
		c-1.735,0-3.196,1.332-3.196,3.139C222.42,5.028,223.881,6.358,225.616,6.358z M224.951,3.456h0.633l0.958,1.572h0.614l-1.03-1.597
		c0.528-0.069,0.937-0.349,0.937-1c0-0.717-0.425-1.033-1.283-1.033h-1.38v3.629h0.552V3.456z M224.951,2.989V1.865h0.744
		c0.386,0,0.796,0.083,0.796,0.533c0,0.557-0.42,0.592-0.886,0.592H224.951z"/>
</g>
</svg>
